#define igor_bn_32x32_width 32
#define igor_bn_32x32_height 32
#define igor_bn_32x32_x_hot 16
#define igor_bn_32x32_y_hot 16
static unsigned char igor_bn_32x32_bits[] = {
   0x00, 0x00, 0x00, 0x00, 0x80, 0xe1, 0x00, 0x00, 0x80, 0xef, 0x01, 0x00,
   0x80, 0x3c, 0x01, 0x00, 0x80, 0x0e, 0x03, 0x00, 0x80, 0x03, 0x3e, 0x00,
   0xc0, 0x00, 0x60, 0x00, 0x40, 0x00, 0xc0, 0x01, 0x40, 0x00, 0x00, 0x01,
   0x60, 0x06, 0x00, 0x03, 0x20, 0x07, 0x00, 0x06, 0xb0, 0x03, 0x02, 0x0c,
   0x90, 0x00, 0x02, 0x08, 0x18, 0x00, 0x03, 0x18, 0x08, 0x00, 0x03, 0x10,
   0x0c, 0x00, 0x03, 0x30, 0x04, 0x80, 0x01, 0x20, 0x04, 0xc0, 0x01, 0x20,
   0x06, 0xf0, 0x00, 0x60, 0x12, 0xb8, 0x00, 0x40, 0x1b, 0x8c, 0x00, 0x40,
   0x03, 0xc6, 0x00, 0x40, 0x26, 0x43, 0x00, 0x40, 0x7c, 0x63, 0x00, 0xc0,
   0xf8, 0x31, 0x00, 0x80, 0xc0, 0x30, 0x00, 0x80, 0x00, 0x18, 0x00, 0x80,
   0x00, 0x0c, 0x00, 0x80, 0x00, 0x04, 0x00, 0x80, 0x00, 0x04, 0x00, 0x80,
   0x00, 0x04, 0x00, 0x80, 0x00, 0xfc, 0xff, 0xff };
