#define igor_bk_32x32_width 32
#define igor_bk_32x32_height 32
#define igor_bk_32x32_x_hot 16
#define igor_bk_32x32_y_hot 16
static unsigned char igor_bk_32x32_bits[] = {
   0x00, 0x80, 0x01, 0x00, 0x00, 0x80, 0x01, 0x00, 0x00, 0xe0, 0x07, 0x00,
   0x00, 0x60, 0x06, 0x00, 0x00, 0xc0, 0x03, 0x00, 0x00, 0x80, 0x01, 0x00,
   0x00, 0xc0, 0x03, 0x00, 0x00, 0x60, 0x06, 0x00, 0x00, 0x20, 0x04, 0x00,
   0x00, 0x30, 0x0c, 0x00, 0xf0, 0x17, 0xe8, 0x0f, 0x38, 0x1e, 0x78, 0x1c,
   0x0c, 0x18, 0x1c, 0x30, 0x04, 0x30, 0x0c, 0x20, 0x06, 0x60, 0x06, 0x60,
   0x02, 0xc0, 0x07, 0x60, 0x06, 0xc0, 0x03, 0x20, 0x04, 0x80, 0x01, 0x20,
   0x0c, 0x80, 0x01, 0x30, 0x18, 0x80, 0x01, 0x18, 0x30, 0x80, 0x01, 0x0c,
   0xf0, 0xff, 0xff, 0x0f, 0xe0, 0x00, 0x00, 0x07, 0x60, 0x00, 0x00, 0x06,
   0x40, 0x00, 0x00, 0x02, 0x40, 0x00, 0x00, 0x02, 0x40, 0xfc, 0x3f, 0x02,
   0x40, 0x07, 0xe0, 0x02, 0xc0, 0x01, 0x80, 0x03, 0xc0, 0x00, 0x00, 0x03,
   0x80, 0x0f, 0xe0, 0x01, 0x00, 0xfc, 0x3f, 0x00 };
