#define igor_wq_32x32_width 32
#define igor_wq_32x32_height 32
#define igor_wq_32x32_x_hot 16
#define igor_wq_32x32_y_hot 16
static unsigned char igor_wq_32x32_bits[] = {
   0x00, 0x00, 0x00, 0x00, 0x00, 0x00, 0x00, 0x00, 0x00, 0xc0, 0x03, 0x00,
   0x80, 0xc3, 0xc2, 0x01, 0xc0, 0x47, 0xe6, 0x03, 0x40, 0x44, 0x23, 0x02,
   0xce, 0xc6, 0x63, 0x73, 0x9f, 0xc7, 0xe3, 0xf9, 0x11, 0xc7, 0xe3, 0x89,
   0x1b, 0xc7, 0xe3, 0xd8, 0x1e, 0xcf, 0xe3, 0x78, 0x1c, 0xcf, 0xf3, 0x38,
   0x3c, 0xcb, 0xd2, 0x38, 0x3c, 0xdb, 0x92, 0x3c, 0x68, 0x51, 0xda, 0x36,
   0xd8, 0x73, 0x8e, 0x17, 0x98, 0x21, 0x84, 0x19, 0x18, 0x41, 0x84, 0x18,
   0x10, 0xfe, 0x7f, 0x18, 0xf0, 0x07, 0xe0, 0x0d, 0xf0, 0x01, 0x80, 0x0f,
   0xe0, 0xf0, 0x0f, 0x07, 0xc0, 0xff, 0xff, 0x07, 0x80, 0x01, 0x80, 0x03,
   0x80, 0x01, 0x80, 0x01, 0x80, 0xf1, 0x9f, 0x01, 0x80, 0xff, 0xff, 0x01,
   0xc0, 0x1f, 0xf0, 0x03, 0xc0, 0x01, 0x00, 0x03, 0xc0, 0x07, 0xc0, 0x03,
   0x80, 0xff, 0xff, 0x03, 0x00, 0xf8, 0x3f, 0x00 };
