#define igor_wp_32x32_width 32
#define igor_wp_32x32_height 32
#define igor_wp_32x32_x_hot 16
#define igor_wp_32x32_y_hot 16
static unsigned char igor_wp_32x32_bits[] = {
   0x00, 0xc0, 0x03, 0x00, 0x00, 0xe0, 0x07, 0x00, 0x00, 0x70, 0x0e, 0x00,
   0x00, 0x38, 0x1c, 0x00, 0x00, 0x18, 0x18, 0x00, 0x00, 0x18, 0x18, 0x00,
   0x00, 0x30, 0x0c, 0x00, 0x00, 0x30, 0x0c, 0x00, 0x00, 0x3c, 0x3c, 0x00,
   0x00, 0x1e, 0x78, 0x00, 0x00, 0x0e, 0x70, 0x00, 0x00, 0x06, 0x60, 0x00,
   0x00, 0x07, 0xe0, 0x00, 0x00, 0x07, 0xe0, 0x00, 0x00, 0x0e, 0x70, 0x00,
   0x00, 0x0e, 0x70, 0x00, 0x00, 0x3c, 0x3c, 0x00, 0x00, 0x38, 0x1c, 0x00,
   0x00, 0x1c, 0x38, 0x00, 0x00, 0x0f, 0xf0, 0x00, 0x80, 0x03, 0xc0, 0x01,
   0xc0, 0x03, 0xc0, 0x03, 0xc0, 0x00, 0x00, 0x03, 0xe0, 0x00, 0x00, 0x07,
   0x70, 0x00, 0x00, 0x0e, 0x30, 0x00, 0x00, 0x0c, 0x30, 0x00, 0x00, 0x0c,
   0x30, 0x00, 0x00, 0x0c, 0x30, 0x00, 0x00, 0x0c, 0x30, 0x00, 0x00, 0x0c,
   0xf0, 0xff, 0xff, 0x0f, 0xf0, 0xff, 0xff, 0x0f };
