#define igor_bq_32x32_width 32
#define igor_bq_32x32_height 32
#define igor_bq_32x32_x_hot 16
#define igor_bq_32x32_y_hot 16
static unsigned char igor_bq_32x32_bits[] = {
   0x00, 0x00, 0x00, 0x00, 0x00, 0x00, 0x00, 0x00, 0x00, 0xc0, 0x03, 0x00,
   0x80, 0x43, 0xc2, 0x01, 0xc0, 0x46, 0x66, 0x03, 0x40, 0x44, 0x22, 0x02,
   0xce, 0xc4, 0x23, 0x73, 0x9b, 0xc7, 0xe3, 0xd9, 0x11, 0xc7, 0xe2, 0x89,
   0x13, 0x45, 0xa2, 0xc8, 0x1e, 0x4d, 0xa2, 0x78, 0x1c, 0x4d, 0xb2, 0x38,
   0x34, 0x49, 0x92, 0x28, 0x2c, 0x59, 0x92, 0x2c, 0x68, 0x51, 0x9a, 0x36,
   0xc8, 0x71, 0x8e, 0x13, 0x88, 0x21, 0x84, 0x11, 0x18, 0x41, 0x84, 0x10,
   0x10, 0xfe, 0x7f, 0x18, 0x10, 0x07, 0xe0, 0x08, 0xf0, 0x01, 0x80, 0x0d,
   0xe0, 0xf0, 0x0f, 0x07, 0xc0, 0xff, 0xff, 0x07, 0x80, 0x00, 0x00, 0x03,
   0x80, 0x00, 0x00, 0x01, 0x80, 0xf0, 0x1f, 0x01, 0x80, 0xff, 0xff, 0x01,
   0xc0, 0x00, 0x00, 0x03, 0x40, 0x00, 0x00, 0x02, 0xc0, 0x00, 0x00, 0x02,
   0x80, 0x0f, 0xe0, 0x03, 0x00, 0xf8, 0x3f, 0x00 };
