#define igor_wq_32x32_mask_width 32
#define igor_wq_32x32_mask_height 32
static unsigned char igor_wq_32x32_mask_bits[] = {
   0x00, 0x00, 0x00, 0x00, 0x00, 0x00, 0x00, 0x00, 0x00, 0xc0, 0x03, 0x00,
   0x80, 0xc3, 0xc3, 0x01, 0xc0, 0xc7, 0xe7, 0x03, 0xc0, 0xc7, 0xe3, 0x03,
   0xce, 0xc7, 0xe3, 0x73, 0x9f, 0xc7, 0xe3, 0xf9, 0x1f, 0xc7, 0xe3, 0xf9,
   0x1f, 0xc7, 0xe3, 0xf8, 0x1e, 0xcf, 0xe3, 0x78, 0x1c, 0xcf, 0xf3, 0x38,
   0x3c, 0xcf, 0xf3, 0x38, 0x3c, 0xdf, 0xf3, 0x3c, 0x78, 0xdf, 0xfb, 0x3e,
   0xf8, 0xff, 0xff, 0x1f, 0xf8, 0xff, 0xff, 0x1f, 0xf8, 0xff, 0xff, 0x1f,
   0xf0, 0xff, 0xff, 0x1f, 0xf0, 0xff, 0xff, 0x0f, 0xf0, 0xff, 0xff, 0x0f,
   0xe0, 0xff, 0xff, 0x07, 0xc0, 0xff, 0xff, 0x07, 0x80, 0xff, 0xff, 0x03,
   0x80, 0xff, 0xff, 0x01, 0x80, 0xff, 0xff, 0x01, 0x80, 0xff, 0xff, 0x01,
   0xc0, 0xff, 0xff, 0x03, 0xc0, 0xff, 0xff, 0x03, 0xc0, 0xff, 0xff, 0x03,
   0x80, 0xff, 0xff, 0x03, 0x00, 0xf8, 0x3f, 0x00 };
