#define igor_bp_32x32_width 32
#define igor_bp_32x32_height 32
#define igor_bp_32x32_x_hot 16
#define igor_bp_32x32_y_hot 16
static unsigned char igor_bp_32x32_bits[] = {
   0x00, 0xc0, 0x03, 0x00, 0x00, 0x60, 0x06, 0x00, 0x00, 0x30, 0x0c, 0x00,
   0x00, 0x18, 0x18, 0x00, 0x00, 0x08, 0x10, 0x00, 0x00, 0x08, 0x10, 0x00,
   0x00, 0x18, 0x18, 0x00, 0x00, 0x10, 0x08, 0x00, 0x00, 0x3c, 0x3c, 0x00,
   0x00, 0x06, 0x60, 0x00, 0x00, 0x02, 0x40, 0x00, 0x00, 0x02, 0x40, 0x00,
   0x00, 0x03, 0xc0, 0x00, 0x00, 0x03, 0xc0, 0x00, 0x00, 0x02, 0x40, 0x00,
   0x00, 0x06, 0x60, 0x00, 0x00, 0x0c, 0x30, 0x00, 0x00, 0x18, 0x18, 0x00,
   0x00, 0x0c, 0x30, 0x00, 0x00, 0x07, 0xe0, 0x00, 0x80, 0x01, 0x80, 0x01,
   0xc0, 0x00, 0x00, 0x03, 0x40, 0x00, 0x00, 0x02, 0x60, 0x00, 0x00, 0x06,
   0x30, 0x00, 0x00, 0x0c, 0x10, 0x00, 0x00, 0x08, 0x10, 0x00, 0x00, 0x08,
   0x10, 0x00, 0x00, 0x08, 0x10, 0x00, 0x00, 0x08, 0x10, 0x00, 0x00, 0x08,
   0x10, 0x00, 0x00, 0x08, 0xf0, 0xff, 0xff, 0x0f };
