#define igor_wb_32x32_mask_width 32
#define igor_wb_32x32_mask_height 32
static unsigned char igor_wb_32x32_mask_bits[] = {
   0x00, 0xc0, 0x03, 0x00, 0x00, 0xe0, 0x07, 0x00, 0x00, 0xe0, 0x07, 0x00,
   0x00, 0xe0, 0x07, 0x00, 0x00, 0xe0, 0x07, 0x00, 0x00, 0xe0, 0x07, 0x00,
   0x00, 0xf0, 0x0f, 0x00, 0x00, 0xfc, 0x3f, 0x00, 0x00, 0xfe, 0x7f, 0x00,
   0x00, 0xff, 0xff, 0x00, 0x00, 0xff, 0xff, 0x00, 0x80, 0xff, 0xff, 0x01,
   0x80, 0xff, 0xff, 0x01, 0x80, 0xff, 0xff, 0x01, 0x80, 0xff, 0xff, 0x01,
   0x80, 0xff, 0xff, 0x01, 0x00, 0xff, 0xff, 0x00, 0x00, 0xff, 0xff, 0x00,
   0x00, 0xfe, 0x7f, 0x00, 0x00, 0xfc, 0x3f, 0x00, 0x00, 0xfe, 0x7f, 0x00,
   0x00, 0xfe, 0x7f, 0x00, 0x00, 0xfe, 0x7f, 0x00, 0x00, 0xfe, 0x7f, 0x00,
   0x00, 0xf8, 0x1f, 0x00, 0x20, 0xff, 0xff, 0x04, 0xfc, 0xff, 0xff, 0x3f,
   0xfc, 0xff, 0xff, 0x3f, 0xfe, 0xff, 0xff, 0x7f, 0xfc, 0x3f, 0xfc, 0x3f,
   0xf8, 0x07, 0xe0, 0x3f, 0x18, 0x00, 0x00, 0x18 };
