#define igor_br_32x32_width 32
#define igor_br_32x32_height 32
#define igor_br_32x32_x_hot 16
#define igor_br_32x32_y_hot 16
static unsigned char igor_br_32x32_bits[] = {
   0x00, 0x00, 0x00, 0x00, 0x00, 0x00, 0x00, 0x00, 0xe0, 0xe7, 0xcf, 0x0f,
   0x30, 0x24, 0x48, 0x18, 0x10, 0x3c, 0x78, 0x10, 0x10, 0x00, 0x00, 0x10,
   0x10, 0x00, 0x00, 0x10, 0x30, 0x00, 0x00, 0x18, 0x60, 0x00, 0x00, 0x0c,
   0xc0, 0x00, 0x00, 0x06, 0x80, 0x01, 0x00, 0x03, 0x00, 0xff, 0xff, 0x01,
   0x00, 0x02, 0x80, 0x00, 0x00, 0x02, 0x80, 0x00, 0x00, 0x02, 0x80, 0x00,
   0x00, 0x02, 0x80, 0x00, 0x00, 0x02, 0x80, 0x00, 0x00, 0x02, 0x80, 0x00,
   0x00, 0x02, 0x80, 0x00, 0x00, 0x02, 0x80, 0x00, 0x00, 0x02, 0x80, 0x00,
   0x00, 0x02, 0x80, 0x00, 0x00, 0xff, 0xff, 0x00, 0x00, 0x01, 0x80, 0x01,
   0x80, 0x01, 0x00, 0x03, 0xc0, 0x00, 0x00, 0x06, 0x60, 0x00, 0x00, 0x0c,
   0xf0, 0xff, 0xff, 0x1f, 0x18, 0x00, 0x00, 0x30, 0x08, 0x00, 0x00, 0x20,
   0x08, 0x00, 0x00, 0x20, 0xf8, 0xff, 0xff, 0x3f };
