#define igor_bb_32x32_width 32
#define igor_bb_32x32_height 32
#define igor_bb_32x32_x_hot 16
#define igor_bb_32x32_y_hot 16
static unsigned char igor_bb_32x32_bits[] = {
   0x00, 0xc0, 0x03, 0x00, 0x00, 0x60, 0x06, 0x00, 0x00, 0x20, 0x04, 0x00,
   0x00, 0x20, 0x04, 0x00, 0x00, 0xa0, 0x05, 0x00, 0x00, 0xe0, 0x07, 0x00,
   0x00, 0x70, 0x0e, 0x00, 0x00, 0x1c, 0x38, 0x00, 0x00, 0x06, 0x60, 0x00,
   0x00, 0x83, 0xc1, 0x00, 0x00, 0x81, 0x81, 0x00, 0x80, 0xe1, 0x87, 0x01,
   0x80, 0xe0, 0x07, 0x01, 0x80, 0x80, 0x01, 0x01, 0x80, 0x80, 0x01, 0x01,
   0x80, 0x01, 0x80, 0x01, 0x00, 0x01, 0x80, 0x00, 0x00, 0xff, 0xff, 0x00,
   0x00, 0xc6, 0x63, 0x00, 0x00, 0x04, 0x20, 0x00, 0x00, 0xfe, 0x7f, 0x00,
   0x00, 0x06, 0x60, 0x00, 0x00, 0x02, 0x40, 0x00, 0x00, 0xfe, 0x7f, 0x00,
   0x00, 0x78, 0x1e, 0x00, 0x20, 0x3f, 0xfc, 0x04, 0xfc, 0x07, 0xf0, 0x3f,
   0x0c, 0x80, 0x03, 0x30, 0x06, 0xf8, 0x0f, 0x60, 0x0c, 0x3e, 0x7c, 0x20,
   0xf8, 0x07, 0xe0, 0x3f, 0x18, 0x00, 0x00, 0x18 };
