#define igor_wr_32x32_mask_width 32
#define igor_wr_32x32_mask_height 32
static unsigned char igor_wr_32x32_mask_bits[] = {
   0x00, 0x00, 0x00, 0x00, 0x00, 0x00, 0x00, 0x00, 0xe0, 0xe7, 0xcf, 0x0f,
   0xf0, 0xe7, 0xcf, 0x1f, 0xf0, 0xff, 0xff, 0x1f, 0xf0, 0xff, 0xff, 0x1f,
   0xf0, 0xff, 0xff, 0x1f, 0xf0, 0xff, 0xff, 0x1f, 0xe0, 0xff, 0xff, 0x0f,
   0xc0, 0xff, 0xff, 0x07, 0x80, 0xff, 0xff, 0x03, 0x00, 0xff, 0xff, 0x01,
   0x00, 0xfe, 0xff, 0x00, 0x00, 0xfe, 0xff, 0x00, 0x00, 0xfe, 0xff, 0x00,
   0x00, 0xfe, 0xff, 0x00, 0x00, 0xfe, 0xff, 0x00, 0x00, 0xfe, 0xff, 0x00,
   0x00, 0xfe, 0xff, 0x00, 0x00, 0xfe, 0xff, 0x00, 0x00, 0xfe, 0xff, 0x00,
   0x00, 0xfe, 0xff, 0x00, 0x00, 0xff, 0xff, 0x00, 0x00, 0xff, 0xff, 0x01,
   0x80, 0xff, 0xff, 0x03, 0xc0, 0xff, 0xff, 0x07, 0xe0, 0xff, 0xff, 0x0f,
   0xf0, 0xff, 0xff, 0x1f, 0xf8, 0xff, 0xff, 0x3f, 0xf8, 0xff, 0xff, 0x3f,
   0xf8, 0xff, 0xff, 0x3f, 0xf8, 0xff, 0xff, 0x3f };
