#define igor_wn_32x32_width 32
#define igor_wn_32x32_height 32
#define igor_wn_32x32_x_hot 16
#define igor_wn_32x32_y_hot 16
static unsigned char igor_wn_32x32_bits[] = {
   0x00, 0x00, 0x00, 0x00, 0x80, 0xe1, 0x00, 0x00, 0x80, 0xef, 0x01, 0x00,
   0x80, 0xbc, 0x01, 0x00, 0x80, 0x9e, 0x03, 0x00, 0x80, 0x0f, 0x3f, 0x00,
   0xc0, 0x01, 0x7f, 0x00, 0xc0, 0x00, 0xe0, 0x01, 0xc0, 0x00, 0xc0, 0x01,
   0x60, 0x06, 0x80, 0x03, 0x60, 0x07, 0x00, 0x07, 0xb0, 0x03, 0x02, 0x0e,
   0xb0, 0x00, 0x02, 0x0c, 0x18, 0x00, 0x03, 0x1c, 0x18, 0x00, 0x03, 0x18,
   0x0c, 0x00, 0x03, 0x30, 0x0c, 0x80, 0x01, 0x30, 0x0c, 0xc0, 0x01, 0x30,
   0x06, 0xf0, 0x01, 0x60, 0x16, 0xb8, 0x01, 0x60, 0x1b, 0x8c, 0x01, 0x60,
   0x03, 0xc6, 0x01, 0x60, 0x26, 0xc3, 0x00, 0x60, 0x7c, 0x63, 0x00, 0xe0,
   0xf8, 0x71, 0x00, 0xe0, 0xc0, 0x30, 0x00, 0xc0, 0x00, 0x18, 0x00, 0xc0,
   0x00, 0x1c, 0x00, 0xc0, 0x00, 0x0c, 0x00, 0xc0, 0x00, 0x0c, 0x00, 0xc0,
   0x00, 0xfc, 0xff, 0xff, 0x00, 0xfc, 0xff, 0xff };
